<?xml version="1.0" encoding="utf-8"?>
<!-- Generator: Adobe Illustrator 24.1.2, SVG Export Plug-In . SVG Version: 6.00 Build 0)  -->
<svg version="1.1" id="Layer_1" xmlns="http://www.w3.org/2000/svg" xmlns:xlink="http://www.w3.org/1999/xlink" x="0px" y="0px"
	 viewBox="0 0 500 100" style="enable-background:new 0 0 500 100;" xml:space="preserve">
<style type="text/css">
	.st0{fill:#6279EC;}
	.st1{fill:#1F40E6;}
	.st2{fill:#2646E5;}
	.st3{fill:#3351E7;}
	.st4{fill:#687EED;}
	.st5{fill:none;}
</style>
<g>
	<g>
		<path class="st0" d="M63.08,95.3c-1.7-0.1-3.4-0.17-5.09-0.29c-4.73-0.35-9.4-1.01-14.02-2.09c-4.42-1.03-8.68-2.51-12.74-4.53
			c-1.68-0.84-3.27-1.83-4.8-2.95c-2.44-1.79-4.58-3.84-6.33-6.33c-0.59-0.84-1.13-1.68-1.57-2.59c-1.55-3.22-3.02-6.47-4.4-9.77
			c-1.11-2.65-1.92-5.4-2.96-8.06c-1.39-3.57-2.04-7.32-2.93-11.02c-1.18-4.92-1.45-9.91-1.38-14.93c0.05-3.06,0.35-6.12,0.99-9.11
			c0.45-2.11,1.11-4.17,1.65-6.26c0.17-0.67,0.62-0.55,1.03-0.45c1.75,0.41,3.51,0.83,5.25,1.3c4.29,1.18,8.48,2.63,12.54,4.47
			c3.47,1.57,6.72,3.46,9.56,6.02c0.44,0.4,0.5,0.19,0.64-0.2c0.5-1.46,0.93-2.95,1.54-4.36c0.93-2.18,1.86-4.37,3-6.44
			c0.89-1.62,1.74-3.27,2.77-4.8c1.81-2.68,3.78-5.25,5.95-7.64c0.89-0.98,1.82-1.94,2.76-2.88c0.41-0.41,0.7-0.43,1.11-0.07
			c1.08,0.94,2.22,1.83,3.25,2.82c1.37,1.32,2.77,2.61,4.1,3.98c2.36,2.44,4.59,4.97,6.61,7.71c1.05,1.42,1.88,2.94,2.77,4.44
			c0.45,0.76,0.89,1.52,1.18,2.36c0.15,0.45,0.34,0.41,0.55,0.07c0.7-1.09,1.67-1.93,2.57-2.83c2.52-2.52,5.4-4.58,8.38-6.53
			c3.92-2.56,8.04-4.75,12.29-6.72c0.49-0.23,0.7-0.1,0.98,0.34c1.4,2.21,2.41,4.61,3.51,6.98c1.36,2.94,2.1,6.04,2.96,9.13
			c1.88,6.77,2.01,13.67,1.79,20.6c-0.14,4.42-0.55,8.83-1.41,13.17c-0.64,3.24-1.13,6.52-1.92,9.73
			c-0.99,3.99-3.07,7.39-5.78,10.42c-2.97,3.31-6.47,5.95-10.32,8.17c-2.22,1.28-4.48,2.46-6.83,3.5
			c-4.57,2.02-9.28,3.64-14.14,4.85c-0.5,0.13-0.98,0.37-1.52,0.34c0.58-2.19,1.33-4.3,2.36-6.34c1.24-2.46,2.08-5.11,3.12-7.67
			c1.08-2.67,1.85-5.47,2.73-8.22c0.46-1.44,0.77-2.92,1-4.41c0.31-1.98,0.57-3.96,0.12-5.98c-0.79-3.47-0.89-7-0.88-10.55
			c0.02-4,0.29-7.98,0.65-11.95c0.18-1.97,0.31-3.95,0.5-5.92c0.19-2.09,0.67-4.17,0.3-6.29c-0.19-1.07-0.39-2.13-0.8-3.28
			c-0.79,1.2-1.63,2.2-2.01,3.47c-1,3.34-1.13,6.85-2.06,10.21c-0.34,1.25-0.47,2.56-0.74,3.83c-0.71,3.4-1.25,6.85-2.42,10.15
			c-0.76,2.14-1.3,4.36-2.24,6.43c-0.52,1.14-1.25,2.16-1.71,3.33c-0.79,2.05-1.08,4.19-1.2,6.35c-0.07,1.29-0.19,2.59-0.06,3.89
			c0.1,1.03,0.02,2.07,0.02,3.1c-0.18-0.62-0.44-1.18-0.6-1.77c-0.36-1.33-0.61-2.69-0.97-4.03c-0.42-1.56-0.83-3.15-1.62-4.57
			c-0.96-1.72-2.07-3.34-3.47-4.78c-1.19-1.22-1.93-2.83-2.92-4.24c-1.04-1.49-1.74-3.2-2.67-4.78c-1.16-1.98-2.01-4.13-2.99-6.2
			c-1.63-3.44-3.09-6.95-4.56-10.46c-0.77-1.85-1.89-3.44-3.21-5.04c-0.42,1.15-0.76,2.21-1.1,3.25c-0.53,1.63-0.78,3.34-1.19,5.01
			c-0.74,3.03-0.97,6.14-1.68,9.18c-0.35,1.48-0.37,3.04-0.51,4.57c-0.14,1.48-0.22,2.96-0.37,4.44c-0.23,2.24-0.31,4.47-0.07,6.71
			c0.34,3.1,1.55,5.94,2.93,8.68c1.22,2.41,2.85,4.57,4.57,6.67c2.31,2.83,4.94,5.33,7.74,7.62c2.31,1.89,4.73,3.67,7.26,5.28
			c2.29,1.46,4.6,2.88,7.01,4.12C63.01,94.88,63.11,95.07,63.08,95.3z"/>
		<path class="st1" d="M62.91,94.69c-2.41-1.25-4.72-2.67-7.01-4.12c-2.53-1.61-4.95-3.38-7.26-5.28c-2.8-2.3-5.43-4.8-7.74-7.62
			c-1.72-2.1-3.35-4.26-4.57-6.67c-1.38-2.74-2.59-5.58-2.93-8.68c-0.24-2.23-0.16-4.47,0.07-6.71c0.15-1.48,0.23-2.96,0.37-4.44
			c0.14-1.53,0.16-3.09,0.51-4.57c0.71-3.03,0.94-6.15,1.68-9.18c0.41-1.67,0.66-3.39,1.19-5.01c0.34-1.05,0.68-2.11,1.1-3.25
			c1.32,1.6,2.44,3.19,3.21,5.04c1.47,3.51,2.93,7.03,4.56,10.46c0.98,2.07,1.83,4.22,2.99,6.2c0.92,1.58,1.63,3.29,2.67,4.78
			c0.98,1.41,1.73,3.01,2.92,4.24c1.4,1.44,2.51,3.06,3.47,4.78c0.79,1.42,1.2,3,1.62,4.57c0.36,1.33,0.61,2.69,0.97,4.03
			c0.16,0.59,0.43,1.15,0.6,1.77c0-1.04,0.08-2.08-0.02-3.1c-0.12-1.31-0.01-2.61,0.06-3.89c0.12-2.15,0.4-4.3,1.2-6.35
			c0.46-1.17,1.19-2.19,1.71-3.33c0.95-2.07,1.49-4.29,2.24-6.43c1.17-3.3,1.71-6.74,2.42-10.15c0.27-1.27,0.39-2.58,0.74-3.83
			c0.92-3.36,1.05-6.87,2.06-10.21c0.38-1.27,1.22-2.27,2.01-3.47c0.41,1.15,0.62,2.21,0.8,3.28c0.37,2.13-0.11,4.2-0.3,6.29
			c-0.18,1.97-0.32,3.95-0.5,5.92c-0.36,3.98-0.63,7.95-0.65,11.95c-0.02,3.55,0.08,7.08,0.88,10.55c0.46,2.01,0.19,3.99-0.12,5.98
			c-0.23,1.49-0.54,2.97-1,4.41c-0.88,2.75-1.65,5.55-2.73,8.22c-1.04,2.56-1.87,5.2-3.12,7.67c-1.03,2.04-1.78,4.15-2.36,6.34
			c-0.3,0.25-0.26,0.65-0.45,0.96c-0.29-0.83-0.17-1.72-0.45-2.58c-0.39-1.17-0.43-2.45-0.54-3.69c-0.29-3.08-0.68-6.14-1.09-9.21
			c-0.13-0.97-0.16-1.97-0.6-3.08c-0.04,1.71,0.14,3.21,0.3,4.71c0.18,1.76,0.26,3.53,0.51,5.28C62.66,89.7,63.02,92.17,62.91,94.69
			z"/>
	</g>
	<path class="st2" d="M62.91,94.69c0.11-2.51-0.25-4.99-0.6-7.46c-0.25-1.75-0.33-3.52-0.51-5.28c-0.16-1.5-0.34-3-0.3-4.71
		c0.44,1.11,0.47,2.11,0.6,3.08c0.41,3.06,0.8,6.13,1.09,9.21c0.12,1.25,0.16,2.52,0.54,3.69c0.29,0.86,0.16,1.75,0.45,2.58
		c0,0.1-0.01,0.2-0.01,0.3c-0.28,0.3-0.37,0.83-0.94,0.79c-0.02-0.16,0.01-0.35-0.15-0.47c0.01-0.26,0.02-0.51,0.03-0.77
		c0.11-0.02,0.21-0.06,0.19-0.19c-0.01-0.12-0.13-0.14-0.23-0.15c0,0,0-0.01,0-0.01C63.11,95.07,63.01,94.88,62.91,94.69z"/>
	<path class="st3" d="M63.24,96.88c0.57,0.04,0.66-0.49,0.94-0.79c0.19,0.24,0.09,0.54,0.14,0.81c0.11,0.63-0.11,0.92-0.77,0.75
		C63.52,97.37,63.1,97.24,63.24,96.88z"/>
	<path class="st4" d="M63.24,96.88c-0.14,0.35,0.28,0.48,0.31,0.77c-0.97-0.13-1-0.23-0.46-1.24
		C63.25,96.53,63.21,96.72,63.24,96.88z"/>
	<path class="st4" d="M63.08,95.31c0.1,0.01,0.22,0.03,0.23,0.15c0.01,0.13-0.09,0.17-0.19,0.19C63.1,95.53,63.09,95.42,63.08,95.31
		z"/>
</g>
<g>
	<path class="st5" d="M319.43,53.17c-1.11-0.17-2.21-0.29-3.32-0.38c-1.11-0.08-2.1-0.13-2.99-0.13c-4.78,0-8.32,0.81-10.63,2.44
		c-2.3,1.63-3.45,3.65-3.45,6.07c0,3.01,0.91,5.26,2.72,6.76c1.81,1.5,4.27,2.25,7.37,2.25c4.16,0,7.48-0.92,9.96-2.76
		c2.48-1.84,4.29-3.76,5.45-5.76v-7.51c-0.44-0.17-1.13-0.33-2.06-0.5C321.56,53.5,320.54,53.33,319.43,53.17z"/>
	<polygon class="st1" points="125.84,83.23 144.43,83.23 144.43,55.92 150.81,55.92 169.67,83.23 191.19,83.23 170.73,52.67 
		170.87,52.67 161.97,47.15 170.47,41.39 170.34,41.39 188.13,17.47 167.68,17.47 150.28,43.52 144.43,45.9 144.43,14.89 
		125.84,14.89 	"/>
	<path class="st1" d="M260.46,21.41c-1.91-2.13-4.3-3.63-7.17-4.51c-2.88-0.88-6.18-1.32-9.9-1.32c-6.11,0-11.07,1.11-14.88,3.32
		c-3.81,2.21-6.86,4.87-9.17,7.95h-1.99l-1.99-9.39h-14.61v65.76h18.6c0-6.85-0.02-13.71-0.07-20.6c-0.05-6.89-0.07-13.76-0.07-20.6
		c1.06-3.17,2.99-5.78,5.78-7.83c2.79-2.05,6.18-3.07,10.16-3.07c4.69,0,7.97,1.25,9.83,3.76c1.86,2.51,2.79,6.6,2.79,12.27v36.07
		h18.6V43.52c0-5.43-0.51-9.94-1.53-13.53C263.82,26.4,262.36,23.54,260.46,21.41z"/>
	<path class="st1" d="M342.08,65.44c0-4.68,0.18-9.1,0.53-13.28c0.35-4.17,0.53-8.39,0.53-12.65c0-3.51-0.42-6.7-1.26-9.58
		c-0.84-2.88-2.24-5.34-4.18-7.39c-1.95-2.04-4.58-3.61-7.9-4.7c-3.32-1.08-7.42-1.63-12.29-1.63c-6.2,0-12.2,0.54-18,1.63
		c-5.8,1.09-10.69,2.46-14.68,4.13l4.91,13.28c3.1-1.42,6.66-2.61,10.69-3.57c4.03-0.96,8.17-1.44,12.42-1.44
		c4.6,0,7.75,0.75,9.43,2.25c1.68,1.5,2.52,3.84,2.52,7.01c0,1.25-0.13,2.76-0.4,4.51c-0.98-0.17-2.7-0.44-5.18-0.81
		c-2.48-0.38-4.96-0.56-7.44-0.56c-10.72,0-18.71,1.9-23.98,5.7c-5.27,3.8-7.9,9.42-7.9,16.85c0,2.75,0.55,5.3,1.66,7.64
		c1.11,2.34,2.66,4.36,4.65,6.08c1.99,1.71,4.38,3.03,7.17,3.95c2.79,0.92,5.87,1.38,9.23,1.38c5.58,0,10.14-1.04,13.68-3.13
		c3.54-2.09,6.46-4.59,8.77-7.52h1.59l3.05,9.77h15.14c-0.98-2.75-1.68-5.64-2.13-8.64C342.3,71.7,342.08,68.62,342.08,65.44z
		 M324.54,61.68c-1.15,2-2.97,3.93-5.45,5.76c-2.48,1.84-5.8,2.76-9.96,2.76c-3.1,0-5.56-0.75-7.37-2.25
		c-1.82-1.5-2.72-3.76-2.72-6.76c0-2.42,1.15-4.45,3.45-6.07c2.3-1.63,5.84-2.44,10.63-2.44c0.88,0,1.88,0.04,2.99,0.13
		c1.11,0.08,2.21,0.21,3.32,0.38c1.11,0.17,2.13,0.33,3.06,0.5c0.93,0.17,1.61,0.33,2.06,0.5V61.68z"/>
	<path class="st1" d="M404.57,68.63c-2.17,0.63-5.11,0.94-8.83,0.94c-3.1,0-5.8-0.5-8.1-1.5c-2.3-1-4.21-2.38-5.71-4.13
		c-1.51-1.75-2.61-3.78-3.32-6.08c-0.71-2.29-1.06-4.78-1.06-7.45c0-6.76,1.48-11.67,4.45-14.72c2.97-3.05,7.24-4.57,12.82-4.57
		c3.01,0,5.65,0.23,7.9,0.69c2.26,0.46,4.54,1.15,6.84,2.07l4.52-14.03c-2.66-1.25-5.69-2.27-9.1-3.07
		c-3.41-0.79-7.77-1.19-13.08-1.19c-10.89,0-19.19,3.07-24.91,9.21c-5.71,6.14-8.57,14.68-8.57,25.61c0,5.18,0.57,9.88,1.73,14.09
		c1.15,4.22,3.03,7.87,5.64,10.96c2.61,3.09,5.98,5.47,10.09,7.14c4.12,1.67,9.19,2.5,15.21,2.5c4.52,0,8.88-0.5,13.08-1.5
		c4.21-1,7.81-2.46,10.83-4.38l-4.25-13.15C408.8,67.15,406.74,68.01,404.57,68.63z"/>
	<polygon class="st1" points="473.84,52.67 464.94,47.15 473.44,41.39 473.31,41.39 491.11,17.47 470.65,17.47 453.25,43.52 
		447.41,45.9 447.41,14.89 428.81,14.89 428.81,83.23 447.41,83.23 447.41,55.92 453.78,55.92 472.64,83.23 494.16,83.23 
		473.71,52.67 	"/>
</g>
</svg>
